Coordinates
version=1
nRows=17
nColumns=40
inDegrees=yes

Units are S.I. units (second, meters, Newtons, ...)
Angles are in degrees.

endheader
time	pelvis_tilt	pelvis_list	pelvis_rotation	pelvis_tx	pelvis_ty	pelvis_tz	hip_flexion_r	hip_adduction_r	hip_rotation_r	knee_angle_r	knee_angle_r_beta	ankle_angle_r	subtalar_angle_r	mtp_angle_r	hip_flexion_l	hip_adduction_l	hip_rotation_l	knee_angle_l	knee_angle_l_beta	ankle_angle_l	subtalar_angle_l	mtp_angle_l	lumbar_extension	lumbar_bending	lumbar_rotation	arm_flex_r	arm_add_r	arm_rot_r	elbow_flex_r	pro_sup_r	wrist_flex_r	wrist_dev_r	arm_flex_l	arm_add_l	arm_rot_l	elbow_flex_l	pro_sup_l	wrist_flex_l	wrist_dev_l
      0.42000000	      0.84191058	     -4.02978634	     -3.15725704	     -0.63172281	      0.87748293	      0.98611565	    -10.31993642	      3.36163791	     -9.41415499	    -20.76155042	     -0.36235741	     13.04492814	      3.23125613	     -7.25412798	     26.66586349	      6.30052982	      8.99792407	    -14.44922877	     -0.25218662	     -2.05019228	     -7.76831133	    -12.14261145	     -7.20055842	      3.74159407	      6.72729365	     24.23872239	    -15.43209749	     13.16448950	     23.73024009	     89.95437384	      0.00000000	      0.00000000	     -2.45193960	      8.90484986	     -7.44590127	     10.75197743	     89.95437384	      0.00000000	      0.00000000
      0.43000000	      0.65990726	     -3.82812113	     -3.82404776	     -0.61853162	      0.87605548	      0.98587435	    -10.56625319	      2.82462090	     -8.81042408	    -21.58445336	     -0.37671978	     12.72995353	      3.14352427	     -7.33692848	     26.85395398	      6.54079381	     10.54670425	    -13.72250169	     -0.23950284	     -2.11944846	     -7.90746948	    -12.07005114	     -7.04422627	      3.48258993	      7.06968286	     24.71900244	    -15.55428968	     12.96372033	     25.20326640	     89.95437384	      0.00000000	      0.00000000	     -3.18625173	      8.87443428	     -7.92428069	      9.69199715	     89.95437384	      0.00000000	      0.00000000
      0.44000000	      0.53783679	     -3.74392515	     -4.22915117	     -0.60478755	      0.87470027	      0.98542977	    -10.95391600	      2.46793934	     -8.38455006	    -22.30839050	     -0.38935486	     12.22186981	      3.04980423	     -7.27819346	     26.97230445	      6.68743732	     11.17688897	    -13.65351878	     -0.23829886	     -1.71663522	     -7.65311864	    -11.91523696	     -6.87867703	      3.36684473	      7.03983971	     25.20761035	    -15.51478201	     12.80339608	     26.43850321	     89.95437384	      0.00000000	      0.00000000	     -4.08721754	      8.84098336	     -8.26719249	      8.92320819	     89.95437384	      0.00000000	      0.00000000
      0.45000000	      0.33011005	     -3.63224033	     -4.62972528	     -0.59054834	      0.87327213	      0.98495118	    -11.30513742	      2.05616749	     -8.12020415	    -22.92405325	     -0.40010021	     11.79195833	      2.93799140	     -7.13513938	     27.09469760	      6.72558967	     10.88155618	    -14.09228698	     -0.24595681	     -1.74974198	     -7.37544691	    -11.66780075	     -6.53165250	      3.23903283	      6.94381110	     25.62911221	    -15.37118910	     12.67794440	     27.43919805	     89.95437384	      0.00000000	      0.00000000	     -5.23122983	      8.86805968	     -8.31447554	      8.67734918	     89.95437384	      0.00000000	      0.00000000
      0.46000000	      0.56354779	     -3.09032275	     -5.51639112	     -0.57645858	      0.87285060	      0.98482704	    -11.68096013	      1.03583037	     -7.07273869	    -24.21312822	     -0.42259881	     10.55151801	      2.62443260	     -6.96148152	     26.46925365	      6.43085583	     10.92837601	    -14.86444169	     -0.25943345	     -1.36338285	     -6.46735484	    -11.34604539	     -6.75283385	      2.53271039	      7.67225245	     25.57130629	    -15.56679719	     12.33445148	     29.24025023	     89.95437384	      0.00000000	      0.00000000	     -5.58005467	      8.78052660	     -9.16277030	      7.46080472	     89.95437384	      0.00000000	      0.00000000
      0.47000000	      0.60861630	     -2.68675549	     -5.91199954	     -0.56167803	      0.87207278	      0.98401241	    -12.01760889	      0.28344403	     -6.50665134	    -25.26820025	     -0.44101329	      9.52784488	      2.28337541	     -6.72440467	     26.31680273	      6.03526550	     10.86852454	    -16.29379769	     -0.28438042	     -3.51368404	     -4.79387162	    -10.52017938	     -6.61637842	      2.06674959	      7.69122406	     25.63144900	    -15.47223582	     12.04674522	     30.34682098	     89.95437384	      0.00000000	      0.00000000	     -6.45736827	      8.77503141	     -9.76207159	      7.11074803	     89.95437384	      0.00000000	      0.00000000
      0.48000000	      0.64561202	     -1.99000593	     -6.28668570	     -0.54718511	      0.87164222	      0.98290438	    -12.10200571	     -0.78937145	     -5.94323082	    -26.59666114	     -0.46419931	      8.17643394	      1.51303226	     -6.55728398	     25.97414691	      5.04486419	      9.82878956	    -17.26950742	     -0.30140976	     -6.41709930	     -1.55894956	     -9.41202334	     -6.49294616	      1.27521777	      7.78252223	     25.55700113	    -15.30361712	     11.33845803	     31.43331720	     89.95437384	      0.00000000	      0.00000000	     -7.34795351	      8.99962812	    -12.41243531	      7.20690628	     89.95437384	      0.00000000	      0.00000000
      0.49000000	      0.68045009	     -1.48942277	     -6.48676683	     -0.53246782	      0.87144350	      0.98166948	    -12.12253777	     -1.54759246	     -5.30622092	    -28.02753802	     -0.48917282	      6.91966870	      1.33047233	     -6.23751521	     25.95391333	      4.33625848	      8.80965612	    -18.92478955	     -0.33029989	     -7.39960163	     -1.41450238	     -8.96657342	     -6.37335069	      0.71446681	      7.56851917	     25.53214355	    -15.12456612	     11.14650812	     32.30130921	     89.95437384	      0.00000000	      0.00000000	     -8.24674576	      9.01598970	    -12.44715771	      7.41663333	     89.95437384	      0.00000000	      0.00000000
      0.50000000	      0.49393922	     -0.51506665	     -6.47669849	     -0.51797673	      0.87142093	      0.97977956	    -11.38168345	     -2.96760506	     -5.80539035	    -30.19030774	     -0.52692027	      4.39140721	      0.23754086	     -5.59400030	     26.27248893	      3.08471825	      8.21005540	    -20.37308744	     -0.35557745	     -8.14670428	     -0.77439006	     -8.43806561	     -5.93743944	     -0.30435033	      7.29012056	     25.36825184	    -14.80029551	     10.45210168	     32.79377666	     89.95437384	      0.00000000	      0.00000000	     -8.59032995	      8.94836899	    -12.87569549	      6.78236953	     89.95437384	      0.00000000	      0.00000000
      0.51000000	      0.56676996	      0.14466231	     -6.45064822	     -0.50318523	      0.87202197	      0.97828507	    -10.89650799	     -3.99411540	     -6.13509219	    -32.35965092	     -0.56478245	      1.72620265	     -0.58115347	     -4.92648942	     26.43089675	      2.28493347	      8.26419479	    -22.35675543	     -0.39019899	     -6.71718252	      0.53431833	     -8.01837994	     -5.83648364	     -1.03400107	      6.98531691	     25.16980002	    -14.45882555	      9.84847208	     33.23335204	     89.95437384	      0.00000000	      0.00000000	     -9.09433348	      8.96529061	    -13.25895414	      6.66558139	     89.95437384	      0.00000000	      0.00000000
      0.52000000	      0.36451464	      0.94877489	     -6.25796383	     -0.48872308	      0.87244889	      0.97611857	     -9.75042904	     -5.14208668	     -6.64115942	    -34.97874330	     -0.61049424	     -1.38237146	     -2.18896942	     -3.28637292	     26.67916872	      0.79183153	      6.48851799	    -24.04144757	     -0.41960242	     -4.61472965	      4.03434788	     -6.21476812	     -5.44330276	     -1.83121183	      6.62430654	     24.77650903	    -14.12947419	      8.95253266	     33.70786605	     89.95437384	      0.00000000	      0.00000000	     -9.57667704	      9.10574713	    -14.88419009	      6.80000416	     89.95437384	      0.00000000	      0.00000000
      0.53000000	      0.49583678	      1.63754272	     -6.19650233	     -0.47365253	      0.87348365	      0.97417187	     -8.88171221	     -6.34585638	     -7.31551753	    -37.52864096	     -0.65499835	     -5.43203072	     -3.09563338	     -2.33782360	     26.39279108	     -0.23328006	      6.35175895	    -25.50975670	     -0.44522925	     -3.52274285	      3.64468691	     -5.96266822	     -5.36213828	     -2.51330721	      6.32903462	     24.36701472	    -13.90481140	      8.61804148	     34.08510782	     89.95437384	      0.00000000	      0.00000000	     -9.90228728	      9.08878331	    -15.08105012	      6.76514083	     89.95437384	      0.00000000	      0.00000000
      0.54000000	      0.72897068	      2.09840392	     -6.24997745	     -0.45888650	      0.87471979	      0.97250704	     -7.84414159	     -7.34709035	     -7.86977011	    -40.30322930	     -0.70342405	    -10.16636583	     -4.36968311	     -1.31692457	     25.75274399	     -0.95417595	      6.37278574	    -26.64924596	     -0.46511709	     -2.31153059	      3.61265894	     -5.76905319	     -5.44493326	     -2.96004950	      6.18495475	     24.04254556	    -13.69540981	      8.33373636	     34.19411243	     89.95437384	      0.00000000	      0.00000000	    -10.13100232	      9.06012337	    -15.26729570	      6.84126002	     89.95437384	      0.00000000	      0.00000000
      0.55000000	      0.70142346	      2.69603945	     -6.21992984	     -0.44431195	      0.87566913	      0.97077651	     -6.45997548	     -8.13319058	     -7.60341814	    -42.78006390	     -0.74665297	    -15.93594814	     -6.97439320	      0.27860773	     25.12002386	     -1.85153262	      6.47353434	    -27.26359071	     -0.47583942	     -0.90804572	      3.81417420	     -5.50713688	     -5.22065659	     -3.52359132	      5.88258614	     23.58530601	    -13.39544248	      8.15534376	     34.31508368	     89.95437384	      0.00000000	      0.00000000	    -10.28201290	      9.04940120	    -15.48685486	      6.81052251	     89.95437384	      0.00000000	      0.00000000
      0.56000000	      0.67830976	      2.84015103	     -6.30172458	     -0.43061833	      0.87669834	      0.96927414	     -4.83127855	     -8.14638303	     -6.61571122	    -45.52246845	     -0.79451696	    -20.07516155	    -10.42098659	      2.28541500	     24.41255854	     -2.17496579	      6.52681577	    -27.80087323	     -0.48521677	      0.03503713	      3.77591994	     -5.04606097	     -5.17451022	     -3.55903011	      5.71310104	     23.24455219	    -13.23887169	      8.15189181	     34.38646902	     89.95437384	      0.00000000	      0.00000000	    -10.35898415	      9.01225714	    -15.56609118	      7.16976304	     89.95437384	      0.00000000	      0.00000000
      0.57000000	      0.85516634	      3.04416568	     -6.45476569	     -0.41705744	      0.87797435	      0.96804963	     -3.28404516	     -8.29516251	     -5.65411741	    -48.41405008	     -0.84498458	    -23.14090206	    -11.28090724	      3.13313755	     23.26669981	     -2.49135801	      6.97279526	    -27.92038267	     -0.48730261	      1.36387253	      3.06772571	     -5.06729619	     -5.31361272	     -3.71432002	      5.47371209	     23.18057863	    -12.90195850	      8.37551463	     33.89634025	     89.95437384	      0.00000000	      0.00000000	    -10.28639555	      8.97557629	    -15.63575739	      7.27733066	     89.95437384	      0.00000000	      0.00000000
      0.58000000	      0.62374873	      3.04973760	     -6.85452114	     -0.40420270	      0.87854528	      0.96747711	     -0.87666653	     -8.00144883	     -4.44439023	    -51.86936292	     -0.90529116	    -24.16277105	    -13.27854091	     14.40711123	     22.73881693	     -2.25910309	      8.04224329	    -28.38817738	     -0.49546716	      2.55449348	      1.13829126	     -1.68445305	     -5.07173865	     -3.62344485	      5.54427267	     22.93990577	    -12.67559339	      8.73269447	     33.62673262	     89.95437384	      0.00000000	      0.00000000	    -10.18654993	      8.94380862	    -15.51273824	      7.62858411	     89.95437384	      0.00000000	      0.00000000
